<svg xmlns="http://www.w3.org/2000/svg" width="30" height="30" viewBox="0 0 30 30">
    <g fill="none" fill-rule="evenodd">
        <g fill="#000">
            <g>
                <g>
                    <g>
                        <path d="M8.88 14.167h11.54c.672 0 1.28-.406 1.544-1.032l3.358-7.933c.222-.525.168-1.129-.143-1.605-.31-.477-.837-.764-1.401-.764H5.31c-.323.005-.638.103-.907.284L3.284.51C3.153.201 2.852.001 2.519 0H.84C.376 0 0 .38 0 .85s.376.85.84.85h1.119l6.094 14.9s-1.623.79-1.623 2.667c-.002 1.153.688 2.192 1.742 2.627 1.055.435 2.265.18 3.06-.647.795-.826 1.016-2.057.559-3.114h6.072c-.494 1.146-.188 2.484.753 3.293.94.81 2.294.898 3.33.22 1.037-.679 1.512-1.965 1.17-3.166-.343-1.2-1.423-2.032-2.657-2.047H9.806l-.926-2.266zm14.898-9.634l-3.358 7.934H8.187L5 4.533h18.777zm-13.43 14.734c0 .626-.502 1.133-1.12 1.133-.618 0-1.12-.507-1.12-1.133s.502-1.134 1.12-1.134c.618 0 1.12.508 1.12 1.134zm11.191 0c0 .626-.501 1.133-1.12 1.133-.617 0-1.118-.507-1.118-1.133s.5-1.134 1.119-1.134c.618 0 1.12.508 1.12 1.134z" transform="translate(-1818.000000, -106.000000) translate(1818.000000, 106.000000) translate(1.642927, 3.757917) translate(0.000000, -0.000000)"/>
                    </g>
                </g>
            </g>
        </g>
    </g>
</svg>
