<svg xmlns="http://www.w3.org/2000/svg" width="18" height="18" viewBox="0 0 18 18">
    <g fill="none" fill-rule="evenodd">
        <g fill="#000">
            <g>
                <g>
                    <path d="M8.55.9l.24.01c3.577.208 6.42 3.074 6.51 6.617-.067 1.072-.373 2.117-.896 3.06l-.053.088c-.037.066-.967 1.54-2.051 3.012C10.234 16.54 9.36 17.1 8.55 17.1h-.083c-.564-.016-1.857-.321-5.733-6.421l-.053-.092c-.518-.945-.818-1.989-.881-3.06C1.893 3.906 4.861.991 8.55.9zm0 3.314c-1.657 0-3 1.318-3 2.945 0 1.627 1.343 2.946 3 2.946s3-1.32 3-2.946c0-1.627-1.343-2.945-3-2.945z" transform="translate(-856 -444) translate(856 401) translate(0 43)"/>
                </g>
            </g>
        </g>
    </g>
</svg>
